<svg width="121" height="121" viewBox="0 0 121 121" fill="none" xmlns="http://www.w3.org/2000/svg">
<g clip-path="url(#clip0_178_3913)">
<path d="M27.875 41.2661H40.1265C48.0118 41.2661 52.9808 45.66 52.9808 52.4312C52.9808 57.9399 49.7713 61.8337 44.4439 63.1453L53.8361 76.6384H49.2663L40.0776 63.6044H31.6955V76.6384H27.875V41.2661ZM40.6804 60.0139C45.6983 60.0139 49.1685 57.5874 49.1685 52.4312C49.1685 47.529 45.8042 44.8976 40.6804 44.8976H31.6955V60.0057H40.6804V60.0139Z" fill="white"/>
<path d="M61.6094 41.2661H87.5705V48.1848H69.0873V55.1609H86.7152V61.9812H69.0873V69.7115H87.5705V76.6384H61.6094V41.2661Z" fill="white"/>
<path d="M102.284 16.7037C82.2364 -2.37188 55.5014 -3.95401 34.5908 6.43225C14.4866 15.8184 0.5 36.3204 0.5 60.0522C0.5 83.4971 14.1363 103.794 33.8495 113.328C54.8742 124.132 82.0165 122.722 102.292 103.409C126.583 80.505 126.559 39.6076 102.284 16.7037ZM2.31654 60.0522C2.31654 40.206 12.4094 22.6879 27.6912 12.4164C42.7856 2.85812 62.287 0.341497 80.3873 8.61279C124.27 28.8525 124.253 91.2356 80.3792 111.467C62.173 119.796 42.5412 117.205 27.4061 107.499C12.279 97.2034 2.31654 79.7754 2.31654 60.0522Z" fill="white"/>
</g>
<defs>
<clipPath id="clip0_178_3913">
<rect width="120" height="120" fill="white" transform="translate(0.5 0.0668945)"/>
</clipPath>
</defs>
</svg>
